<svg width="36" height="36" viewBox="0 0 36 36" fill="none" xmlns="http://www.w3.org/2000/svg">
<g clip-path="url(#clip0_1032_135)">
<path d="M10.968 13.4999H8.532L5.25 22.4999H7.6605L8.3295 20.6609H11.1705L11.8395 22.4999H14.25L10.968 13.4999ZM8.877 19.1609L9.75 16.7699L10.623 19.1624L8.877 19.1609ZM22.116 13.4999H16.866V22.4999H19.116V19.4999H22.116C22.413 19.5054 22.708 19.4509 22.9835 19.3398C23.259 19.2287 23.5092 19.0632 23.7192 18.8531C23.9293 18.6431 24.0948 18.3929 24.2059 18.1174C24.3171 17.8419 24.3715 17.5469 24.366 17.2499V15.7499C24.3715 15.4529 24.3171 15.1579 24.2059 14.8824C24.0948 14.6069 23.9293 14.3567 23.7192 14.1467C23.5092 13.9366 23.259 13.7711 22.9835 13.66C22.708 13.5488 22.413 13.4944 22.116 13.4999ZM22.116 17.2499H19.116V15.7499H22.116V17.2499ZM27 13.4999H29.25V22.4999H27V13.4999Z" fill="black"/>
<path d="M33 9V27H3V9H33ZM33 6H3C2.20435 6 1.44129 6.31607 0.87868 6.87868C0.316071 7.44129 0 8.20435 0 9L0 27C0 27.7956 0.316071 28.5587 0.87868 29.1213C1.44129 29.6839 2.20435 30 3 30H33C33.7956 30 34.5587 29.6839 35.1213 29.1213C35.6839 28.5587 36 27.7956 36 27V9C36 8.20435 35.6839 7.44129 35.1213 6.87868C34.5587 6.31607 33.7956 6 33 6Z" fill="black"/>
</g>
<defs>
<clipPath id="clip0_1032_135">
<rect width="36" height="36" fill="white"/>
</clipPath>
</defs>
</svg>
